<?xml version="1.0" encoding="UTF-8"?>
<svg width="64" height="64" viewBox="0 0 64 64" fill="none" xmlns="http://www.w3.org/2000/svg">
  <rect width="64" height="64" rx="12" fill="url(#g)"/>
  <g transform="translate(8 8)">
    <path d="M20 2c-9 0-18 5-18 12s9 12 18 12 18-5 18-12S29 2 20 2z" fill="#fff" opacity="0.92"/>
    <circle cx="6" cy="8" r="3.2" fill="#6ee7b7"/>
    <circle cx="14" cy="10" r="2.6" fill="#60a5fa"/>
    <circle cx="23" cy="7" r="2.2" fill="#fbbf24"/>
    <path d="M2 34c2-3 6-6 14-6 9 0 14 3 20 6 3 2 3 6 0 8-3 2-8 4-20 4-13 0-18-2-22-6-3-4-1-8 8-12z" fill="#fff" opacity="0.06"/>
    <path d="M4 26c3-2 8-4 16-4 8 0 14 2 20 5" stroke="#fff" stroke-opacity="0.06" stroke-width="2" stroke-linecap="round" stroke-linejoin="round"/>
  </g>
  <defs>
    <linearGradient id="g" x1="0" y1="0" x2="1" y2="1">
      <stop offset="0" stop-color="#0ea5a1"/>
      <stop offset="1" stop-color="#3b82f6"/>
    </linearGradient>
  </defs>
</svg>
